
<svg xmlns="http://www.w3.org/2000/svg" version="1.1" xmlns:xlink="http://www.w3.org/1999/xlink" preserveAspectRatio="none" x="0px" y="0px" width="3000px" height="3000px" viewBox="0 0 3000 3000">
<defs>
<g id="Layer1_0_FILL">
<path fill="#FFFFFF" stroke="none" d="
M 2405.6 541.85
L 2365.2 541.85 2365.2 436.85 1953.45 436.55 1358.2 92.35 1250.2 279.45 927.45 192.75 862.15 435.8 636.25 435.65 636.25 1348.35 687.8 1348.35 687.8 486.65 2313.2 487.5 2313.2 1625.75 2364.75 1625.75 2364.9 1618.1 2364.9 1749.05 2312.7 1749.05 2312.7 2365.85 966.95 2365.85 967 2384.1 2312.7 2384.1 2312.7 2469.15 2312.6 2469.15 2312.55 2752.75 686.5 2752.75 686.5 2741.05 686.65 2741.05 686.65 2557.25 686.75 2557.25
Q 686.75 2538.441796875 686.75 2519.65
L 686.65 2519.65 686.65 2483.55 686.75 2483.55
Q 686.75 2473.697265625 686.75 2463.85
L 686.75 2428.6 686.65 2428.6
Q 686.65 2422.6244140625 686.65 2416.65 686.65 2400.3595703125 686.65 2384.1
L 722.85 2384.1 722.85 2365.85 686.65 2365.85 686.65 2365.15
Q 686.65 2364.1248046875 686.65 2363.1
L 686.75 2363.1 686.75 2293.35 634.9 2293.35 634.9 2803.6 661.95 2804.05 2363.85 2804.75 2363.9 2699.2 2405.6 2699.2 2405.6 541.85
M 930.85 2365.85
L 914.95 2365.85 915 2384.1 930.85 2384.1 930.85 2365.85
M 878.85 2365.85
L 862.95 2365.85 863 2384.1 878.85 2384.1 878.85 2365.85
M 826.85 2365.85
L 810.95 2365.85 811 2384.1 826.85 2384.1 826.85 2365.85
M 774.85 2365.85
L 758.95 2365.85 758.95 2384.1 774.85 2384.1 774.85 2365.85 Z"/>
</g>

<g id="Layer0_0_FILL">
<path fill="#FFFFFF" stroke="none" d="
M 1293.15 1990.85
Q 1272.6 1990.85 1258.05 2005.4 1243.5 2019.9 1243.5 2040.5 1243.5 2061.05 1258.05 2075.6 1272.6 2090.15 1293.15 2090.15 1313.7 2090.15 1328.25 2075.6 1342.8 2061.05 1342.8 2040.5 1342.8 2019.9 1328.25 2005.4 1313.7 1990.85 1293.15 1990.85
M 1278.2 2040.5
Q 1278.2 2034.3 1282.6 2029.9 1286.95 2025.55 1293.15 2025.55 1299.35 2025.55 1303.75 2029.9 1308.1 2034.3 1308.1 2040.5 1308.1 2046.7 1303.75 2051.1 1299.35 2055.45 1293.15 2055.45 1286.95 2055.45 1282.6 2051.1 1278.2 2046.7 1278.2 2040.5
M 543.95 1531.5
Q 529.6 1550.2 524.7 1568.5 519.75 1589.8 523.7 1612.05 530.6 1632.3 543.95 1642.7 556.8 1653.5 571.15 1656.5 585.5 1659.5 597.8 1656.5
L 616.55 1647.1 627.95 1633.25 628.95 1621.9 623.5 1617.95
Q 600.25 1617.95 594.35 1601.15 588.45 1584.35 594.35 1566.6 600.25 1548.3 616.55 1536.4 632.9 1525.05 654.2 1534.9 667.5 1541.85 675.4 1555.65 683.3 1569.55 686.3 1587.8
L 689.75 1626.3 688.75 1668.35
Q 684.3 1721.25 669.5 1771.15
L 636.85 1864.05 555.85 2051.85 496 2186.7
Q 496 2191.65 501.45 2191.65
L 585.5 2191.65 591.4 2187.7 688.75 1968.3 702.6 1935.7 831.55 1660.45
Q 857.75 1607.6 878 1579.95 898.25 1552.25 912.15 1558.15 924.45 1563.15 925.4 1582.35 926.45 1601.7 920.5 1628.35
L 903.7 1684.1 882.95 1740.5 833.05 1858.15 807.8 1929.3 789.05 1997.5 779.65 2061.2 780.15 2072.1 779.65 2082.45
Q 781.65 2093.8 790.05 2102.2 798.9 2110.6 816.25 2110.6
L 841.4 2104.7 857.75 2091.8 871.6 2069.1
Q 874.05 2064.7 876.5 2059.25
L 883.9 2044.9
Q 884.4 2042.9 884.95 2041.9
L 970.9 1865.5 1044 1723.7
Q 1077.15 1664.4 1102.85 1633.25 1128.55 1601.7 1145.8 1609.05 1169.05 1619.9 1163.15 1654.05 1157.25 1687.65 1136.9 1740.5
L 1127.5 1761.7 1068.75 1910.05
Q 1047 1972.3 1037.6 2027.6 1028.7 2083.45 1036.6 2125.5 1040.6 2146.7 1050.95 2161.5 1061.35 2176.8 1078.15 2185.75
L 1094.4 2191.65 1113.25 2193.65 1137.95 2190.7
Q 1152.25 2187.7 1168.6 2174.85 1185.4 2162.55 1194.7 2139.3
L 1198.7 2118 1195.75 2100.25
Q 1192.8 2090.9 1182.4 2085.4 1175.55 2082.45 1175.55 2087.4
L 1172.55 2099.8 1165.6 2113.1 1154.7 2121.95
Q 1147.8 2124.95 1138.95 2121.95 1115.7 2116.05 1119.15 2052.3 1122.6 1988.6 1163.15 1874.95
L 1178.45 1833.95 1194.7 1794.85 1201.65 1776.15
Q 1218.9 1732.6 1227.9 1687.1 1237.2 1642.15 1219.95 1596.75 1212.55 1577.4 1193.25 1566.05 1173.5 1554.2 1142.8 1562.1 1122.6 1567.55 1099.45 1590.75 1076.15 1614 1051.95 1649.1
L 1003.55 1727.65 955.6 1818.1 912.15 1910.05 874.55 1995.45 888.4 1940.15 909.15 1874.95 941.8 1794.85 947.7 1776.15 966.95 1724.25 984.25 1661.95 992.65 1600.2
Q 994.15 1570.55 985.25 1548.3 976.8 1528.05 959.55 1515.1 942.75 1502.8 910.1 1509.75 894.8 1512.75 877.05 1529.55
L 838.95 1573 798.45 1634.25 757.45 1706.9 759.4 1684.65
Q 759.4 1681.75 758.95 1679.2 758.45 1676.75 759.4 1673.8 760.4 1634.25 753.95 1605.1 747.55 1576.45 735.65 1556.2 724.3 1535.95 710.5 1524.1
L 684.3 1505.8
Q 682.85 1505.25 681.35 1504.75 678.4 1503.3 676.9 1503.3 673.9 1501.85 672.4 1500.35 670.45 1499.8 667.5 1498.3 664.55 1497.35 663.05 1497.35
L 643.8 1492.4 621.55 1491.45 598.3 1495.4 590.4 1498.3
Q 557.75 1512.75 543.95 1531.5
M 2491.75 1625.85
Q 2485.85 1624.85 2483.85 1629.3 2474.95 1643.1 2448.3 1655 2422.1 1666.4 2365.25 1663.45
L 2282.75 1658.95 2235.85 1654.55 2249.15 1615.95
Q 2250.6 1613.55 2248.6 1611 2245.7 1610.05 2245.15 1610.05
L 2166.15 1610.05
Q 2159.2 1611 2159.2 1614.95
L 2148.85 1644.15
Q 2100.45 1640.2 2075.7 1649.55 2050.5 1658.45 2042.55 1666.4
L 2030.75 1679.7 2024.35 1692.05
Q 2024.35 1693.1 2023.3 1693.1 2023.3 1695.55 2022.35 1697.05
L 2022.85 1714.3 2029.25 1729.15
Q 2038.6 1739.55 2055.95 1742.5
L 2062.9 1739.55 2069.75 1726.6 2081.6 1714.3 2100.45 1704.45 2128.5 1700.95 2040.05 1954.9 2009.1 2001.9 1973.05 2046.4
Q 1954.75 2065.15 1944.35 2065.15 1937.5 2065.15 1935.45 2059.25
L 1934.5 2045.85 1940.9 2014.8 1956.75 1967.85 2020.45 1787.95
Q 2020.45 1784.5 2018.95 1782.5 2016.5 1782.05 2015.55 1782.05
L 1922.65 1782.5 1904.85 1783.95 1893 1785.9 1890.05 1767.15 1880.65 1746.95 1864.3 1730.65
Q 1854.45 1724.25 1840.1 1724.25 1820.85 1724.25 1806.95 1733.1 1792.7 1741.5 1789.7 1767.7
L 1789.7 1774.65 1790.65 1783.95 1792.7 1789.95
Q 1793.65 1791.9 1795.65 1791.9
L 1814.85 1785
Q 1827.25 1785 1831.2 1793.4
L 1835.2 1810.2 1833.7 1824.5 1827.25 1842.8 1825.25 1846.7 1825.25 1847.75
Q 1823.75 1849.25 1823.75 1849.7
L 1795.15 1907.5 1793.75 1907.5 1771.05 1952 1734 2008.85 1694.95 2053.25
Q 1676.2 2070.6 1667.3 2061.2 1659.85 2054.3 1664.75 2029.6
L 1678.65 1975.75 1699.4 1919.35 1716.65 1877.9
Q 1718.7 1873.9 1717.2 1870.45 1714.2 1868.5 1712.7 1868
L 1682.6 1868
Q 1684.55 1833.4 1674.7 1815.65 1665.3 1798.3 1650.95 1789.95 1634.65 1781.05 1613.4 1781.05 1588.2 1780.55 1564 1787.95 1539.75 1795.85 1516.6 1811.7 1469.6 1843.8 1435.5 1910.5 1418.15 1944.1 1411.3 1976.2 1403.9 2008.85 1406.9 2035.05 1410.3 2061.2 1424.6 2079.5 1439.45 2097.8 1465.65 2101.75 1491.85 2106.65 1514.05 2098.3
L 1550.65 2078.5
Q 1568.95 2065.15 1582.25 2045.85 1584.25 2067.15 1591.65 2079.05
L 1608.45 2095.75
Q 1619.85 2101.75 1631.65 2101.75 1652 2103.7 1670.75 2096.3 1689.5 2088.35 1706.3 2075
L 1737.4 2043.4 1764.15 2007.85
Q 1786.25 1974.25 1804.55 1932.75
L 1821.35 1899.65 1840.55 1867 1859.9 1843.8
Q 1869.75 1834.4 1878.65 1834.4 1890.95 1834.4 1893.5 1843.8
L 1895.95 1861.1
Q 1895.95 1878.9 1878.65 1929.75
L 1859.35 1988.6 1855.4 2011.8 1853.45 2037.95 1857.35 2067.6
Q 1861.4 2082.45 1872.75 2090.4
L 1873.7 2091.8 1890.05 2099.8 1910.25 2101.75
Q 1938.45 2101.75 1964.15 2083.9 1989.85 2066.2 2010.6 2041.4
L 2023.8 2022.55 2022.35 2034.5
Q 2021.35 2052.3 2026.3 2067.15 2026.75 2069.1 2027.25 2070.6 2028.75 2073.05 2029.25 2075 2031.2 2078 2032.7 2079.5
L 2044.6 2092.85 2054.45 2098.3 2062.9 2100.7 2071.75 2101.75
Q 2092 2103.7 2111.25 2096.3 2130.55 2088.35 2148.3 2075
L 2181.9 2043.4 2211.55 2007.85
Q 2243.25 1963.9 2270.4 1907.5
L 2250.1 1907.5 2235.85 1934.25 2211.55 1970.3 2181.9 2008.85 2151.3 2041.4 2125.1 2061.2
Q 2113.2 2067.15 2107.3 2061.2
L 2104.35 2055.3
Q 2103.35 2053.25 2103.35 2051.35
L 2103.35 2045.85 2104.35 2037 2108.3 2020.7 2217.55 1706.9 2327.25 1713.3
Q 2431 1717.3 2483.85 1681.75 2487.3 1678.75 2489.85 1676.75
L 2498.2 1668.35 2501.2 1663.45 2504.1 1654.05 2504.1 1643.1 2499.15 1631.75 2491.75 1625.85
M 1649 1833.95
L 1655.85 1852.25 1658.85 1868 1631.65 1868
Q 1629.2 1868.5 1627.7 1870.95
L 1627.7 1871.95 1617.35 1895.15 1578.3 1988.6 1567.95 2007.85 1550.65 2034 1528.4 2055.8
Q 1516.6 2064.15 1505.15 2061.2 1493.3 2058.2 1490.85 2042.9
L 1491.85 2009.8 1501.2 1972.75 1512.1 1942.6 1526.45 1910.5 1548.2 1868 1576.85 1830.95
Q 1592.15 1815.1 1611.45 1814.15 1625.75 1813.1 1634.65 1819.5
L 1649 1833.95
M 1998.3 926.25
Q 1996.25 925.45 1995 925.45
L 1929.4 925.45
Q 1923.65 926.25 1923.65 929.65
L 1846.4 1149.5 1842.95 1154.05 1829.2 1169.35 1811.45 1185.1 1797.7 1194.65 1782.75 1202.95
Q 1782.75 1201.3 1783.55 1200.5 1784 1197.15 1785.3 1193.85 1792.75 1166.45 1791.05 1148.6 1789.4 1130.8 1781.95 1120.8 1774.9 1111.35 1764.9 1107.15
L 1744.6 1102.95
Q 1755.4 1099.7 1762.45 1091.75
L 1770.35 1077.25
Q 1772.35 1069 1769.1 1059.4 1762.45 1047.85 1754.15 1042
L 1737.55 1034.1 1718.1 1031.65
Q 1696.95 1031.2 1676.55 1037.45 1656.25 1044.1 1636.4 1057.35 1597.3 1084.3 1568.7 1140.3 1559 1159.5 1552.8 1178.9
L 1545.5 1190.5 1522.7 1222.9 1499.5 1250.25 1478.3 1266.9
Q 1469.15 1271.8 1464.15 1266.9
L 1460.45 1253.95 1463.8 1234.1 1468.35 1216.6 1499.05 1129.9 1502.8 1117.5 1580.35 893.1
Q 1581.2 890.2 1579.55 888.55 1577.45 888.1 1576.2 888.1
L 1510.6 888.1
Q 1508.6 888.1 1506.05 889.75 1504.85 891.85 1504.85 892.3
L 1452.15 1040.75 1429.35 1032.45 1418.15 1031.65
Q 1397.4 1031.2 1377.1 1037.45 1356.8 1044.1 1336.85 1057.35 1297.4 1084.3 1269.6 1140.3 1255.15 1168.55 1248.5 1195.5 1242.3 1222.9 1245.2 1244.85 1245.95 1250.85 1247.45 1256.35
L 1222.5 1294.2
Q 1204.2 1318.7 1187.25 1334 1170.2 1349.4 1162.3 1340.65
L 1159.85 1334.85
Q 1159 1333.2 1159 1331.55
L 1159 1327 1159.85 1318.7 1161.5 1311.25 1177.7 1262.7 1244.9 1068.55
Q 1273.95 982.3 1285.55 925.45 1294.25 864.05 1273.5 835.45 1262.75 820.9 1248.2 813.45 1233.7 806.4 1215.05 806.4 1177.7 806.4 1141.15 822.15 1104.65 837.9 1076.05 857.05
L 1029.6 892.3
Q 1017.15 903.05 1009.65 909.25 980.6 932.1 955.75 968.6 930.45 1005.15 918.85 1044.5 910.95 1069 910.55 1092.65 910.1 1116.7 917.6 1136.2 925.5 1155.7 942.1 1169.8 958.65 1183.45 984.8 1188 1011.3 1192.2 1032.5 1184.75 1053.65 1177.65 1069.05 1163.95 1084.35 1150.7 1093.1 1132 1102.2 1113.8 1104.65 1095.95 1108 1067.35 1096 1052.4 1083.5 1037.45 1069.85 1037.45 1055.3 1037.45 1049.1 1042.4
L 1041.6 1051.15 1045.75 1063.6
Q 1050.35 1071.45 1048.65 1081 1046.2 1101.3 1030.4 1110.05 1014.65 1119.15 999.3 1116.7 983.95 1113.8 975.25 1099.25 966.1 1084.3 976.5 1056.95 983.15 1036.65 997.65 1013.8
L 1031.25 968.15 1072.3 926.7
Q 1094.25 907.6 1117.5 894.75
L 1153.65 878.55 1178.5 871.1
Q 1191.35 868.6 1199.25 873.6 1207.55 878.55 1211.3 888.95
L 1214.6 911.8 1210.05 937.1 1129.95 1176.45 1108 1246.5 1097.2 1286.4 1093.45 1316.25
Q 1092.65 1332.4 1097.2 1346.05 1097.2 1348.15 1098 1349.4
L 1103 1356.85 1114.2 1368.9 1125.85 1376.35
Q 1127.5 1377.2 1129.95 1377.2 1147.8 1378.85 1164.85 1372.2 1181.8 1365.6 1196.75 1353.5
L 1224.95 1325.75 1249 1293.4
Q 1253.55 1286.55 1257.9 1279.3 1258.95 1280.75 1260.05 1282.2 1272.15 1297.6 1294.95 1300.85 1316.9 1305.05 1335.2 1297.95
L 1366.25 1281.35
Q 1381.65 1270.15 1392.85 1253.95 1394.5 1271.8 1400.75 1281.75
L 1414.8 1295.85
Q 1424 1300.85 1434.3 1300.85 1451.3 1302.5 1467.55 1296.3 1483.65 1289.65 1498.2 1278.45
L 1525.2 1251.95 1544.8 1226.2 1545.1 1241.1 1551.3 1263.5 1565 1284.3
Q 1574.55 1294.2 1589.85 1300.05 1604.4 1305.85 1620.55 1306.7
L 1639.2 1307.9 1659.6 1306.7
Q 1661.6 1306.7 1662.9 1305.85
L 1682.4 1301.7 1710.15 1290.1 1740.05 1268.55
Q 1755.4 1254.8 1768.25 1233.65
L 1749.15 1237.4
Q 1738.6689453125 1239.4708984375 1723.7 1236.5 1722.857421875 1236.359765625 1721.95 1236.15 1721.862890625 1236.14921875 1721.75 1236.1 1719.955078125 1235.7525390625 1718.1 1235.3 1706.05 1254.8 1689.05 1267.25 1672 1279.75 1649.2 1277.2
L 1638.4 1272.65 1631.35 1267.7
Q 1619.35 1255.7 1618.9 1237
L 1623.1 1201.3 1629.75 1177.65 1638.4 1154.85 1650.85 1126.65 1668.25 1095.95 1689.85 1071.05
Q 1701.85 1060.25 1715.55 1059.4
L 1717.25 1059.4 1724.75 1063.15 1729.65 1075.65 1725.55 1107.15 1712.25 1114.6
Q 1700.25 1125 1691.95 1141.1 1683.2 1157.35 1681.55 1175.2
L 1684 1199.65 1695.65 1217.9
Q 1703.0017578125 1226.4224609375 1719.1 1229.2 1720.2171875 1229.3880859375 1721.35 1229.55 1722.175 1229.95 1723 1230.15 1723.875 1230.35 1724.75 1230.35
L 1752.9 1229.55 1773.25 1225.35 1791.05 1219.15
Q 1812.05 1209.6 1832.65 1191.15
L 1826.15 1216.6 1822.4 1244.5
Q 1821.6 1259.4 1826.15 1271.8 1826.15 1273.45 1826.95 1274.75 1827.8 1276.8 1828.7 1278.45 1829.9 1280.9 1831.15 1282.2
L 1841.1 1293.4 1849.35 1297.95 1856.45 1300.05 1863.5 1300.85
Q 1880.5 1302.5 1896.25 1296.3 1911.65 1289.65 1925.7 1278.45
L 1952.3 1251.95 1974.7 1222.1
Q 1998.3 1185.55 2016.95 1137.85
L 2000 1137.85 1989.15 1160.25 1971.3 1190.5 1949.8 1222.9 1927.4 1250.25 1907.9 1266.9
Q 1899.2 1271.8 1893.8 1266.9
L 1891.25 1261.9
Q 1890.45 1260.25 1890.45 1258.5
L 1890.45 1253.95 1891.25 1246.5 1894.6 1232.85 1935.7 1115.9 1999.2 930.45
Q 2000 928.35 1998.3 926.25
M 1734.2 1133.65
Q 1739.2 1132.85 1740.85 1136.2
L 1743.75 1143.65 1741.3 1172.25 1730.9 1208.35 1721.35 1205.05
Q 1719.25 1203.8 1716.45 1202.15
L 1706.05 1186.4
Q 1701.85 1175.2 1710.6 1154.85
L 1713.1 1148.6 1720.55 1139.5
Q 1726.75 1133.65 1734.2 1133.65
M 1387.45 1073.55
Q 1401.15 1060.25 1416.5 1059.4 1432.65 1058.6 1442.65 1069
L 1420.65 1130.8 1394.5 1194.2 1380.8 1222.1 1365.9 1244.05 1347.2 1262.25
Q 1337.3 1269.35 1327.3 1266.9 1317.8 1264.35 1315.7 1251.5
L 1316.05 1223.7 1324 1192.6 1333.1 1167.25 1345.15 1140.3 1363.4 1104.7
Q 1374.2 1086.85 1387.45 1073.55 Z"/>
</g>
</defs>

<g transform="matrix( 1, 0, 0, 1, 0,0) ">
<use xlink:href="#Layer1_0_FILL"/>
</g>

<g transform="matrix( 1, 0, 0, 1, 0,0) ">
<use xlink:href="#Layer0_0_FILL"/>
</g>
</svg>
